<?xml version="1.0" encoding="utf-8"?>
<!-- Generator: Adobe Illustrator 28.2.0, SVG Export Plug-In . SVG Version: 6.00 Build 0)  -->
<svg version="1.1" id="Слой_1" xmlns="http://www.w3.org/2000/svg" xmlns:xlink="http://www.w3.org/1999/xlink" x="0px" y="0px"
	 viewBox="0 0 619.1 89.7" style="enable-background:new 0 0 619.1 89.7;" xml:space="preserve">
<style type="text/css">
	.st0{fill:#AB0E0E;}
	.st1{fill:#0d2b56;}
</style>
<path class="st0" d="M498,66.8h28.1l-4.6,22.9h-69.6l3.6-18.2l36.3-28.2c2.9-2.2,5.6-4.7,7.9-7.5c1.3-1.8,2.1-3.9,2.1-6.1
	c0.1-1.8-0.7-3.5-2.1-4.6c-1.7-1.2-3.7-1.9-5.8-1.8c-2.6,0-5.2,0.7-7.4,2.1c-2.5,1.6-4.7,3.7-6.3,6.2l-19.5-12.1
	c3.6-6.1,8.8-11,15.1-14.2c7-3.6,14.7-5.4,22.6-5.3c5.9-0.1,11.8,1,17.2,3.2c4.7,1.9,8.9,5,12,8.9c2.8,3.7,4.4,8.2,4.3,12.8
	c0,5.5-1.6,10.9-4.6,15.5c-4.4,6.2-9.9,11.5-16.1,15.9L498,66.8z"/>
<path class="st0" d="M614.7,74.7h-11.5l-3,15h-28.4l3-15h-45l3.7-18.8L579.9,2h31l-41.7,49.7h11.4l2.6-13.4h27l-2.6,13.4h11.5
	L614.7,74.7z"/>
<path class="st1" d="M120.7,2l-19.3,87.7H74.6L46.8,48.8l-9,40.9H6L25.4,2h26.8L80,42.9L89,2H120.7z"/>
<path class="st1" d="M168.4,34.6h-42.9l-4.7,21.3h50.5L168.4,34.6z M194.5,67.4h-76.3l-4.9,22.3h84.4L194.5,67.4z M185.9,2h-53.2
	l-4.9,22.3H189L185.9,2z"/>
<path class="st1" d="M360.1,2l-50.3,87.7h-35l-5.5-46.2l-26.5,46.2h-35L196.2,2h32.2l6.2,50l28.7-50h30l5.5,50.7L327.9,2H360.1
	L360.1,2z"/>
<path class="st1" d="M398.4,23.8c3.3-1.3,6.8-1.9,10.3-1.7h26.9l8.8-15.6L448,0h-40.7l0,0c-7.6,0.1-15.1,1.4-22.2,3.9
	c-6.4,2.2-12.2,6.1-16.5,11.4c-3.8,4.8-5.9,10.8-5.8,17c-0.2,4.6,1.5,9.1,4.7,12.4c3.1,3.1,6.8,5.5,10.9,7
	c5.1,1.8,10.4,3.3,15.7,4.5c3.6,0.7,7.1,1.7,10.5,2.9c2.1,0.9,3.3,2.1,3.3,3.5s-1.1,2.8-3.2,3.7c-3,1-6.1,1.5-9.3,1.3h-60.2
	l-12.4,22h72.5l0,0c7.5-0.1,15-1.4,22.1-3.9c6.5-2.1,12.2-6,16.6-11.2c3.9-4.8,5.9-10.7,5.8-16.9c0.2-4.5-1.5-9-4.6-12.2
	c-3-3.1-6.8-5.5-10.9-6.9c-5.1-1.7-10.3-3.1-15.5-4.2c-3.7-0.7-7.3-1.7-10.9-2.9c-2.2-0.9-3.3-2.1-3.3-3.7
	C394.8,26.2,396,25,398.4,23.8z"/>
<polygon class="st1" points="21.8,2 2.5,89.5 0,89.5 19.3,2 "/>
</svg>
